<?xml version="1.0" encoding="iso-8859-1"?>
<!-- Generator: Adobe Illustrator 18.0.0, SVG Export Plug-In . SVG Version: 6.00 Build 0)  -->
<!DOCTYPE svg PUBLIC "-//W3C//DTD SVG 1.1//EN" "http://www.w3.org/Graphics/SVG/1.1/DTD/svg11.dtd">
<svg version="1.1" id="Capa_1" xmlns="http://www.w3.org/2000/svg" xmlns:xlink="http://www.w3.org/1999/xlink" x="0px" y="0px"
	 viewBox="0 0 475.441 475.441" style="enable-background:new 0 0 475.441 475.441;" xml:space="preserve">
<g>
	<path style="fill:#020202;" d="M314.965,85.219H160.477c-15.145,0-27.424,12.277-27.424,27.414v250.172
		c0,15.137,12.278,27.415,27.424,27.415h154.488c15.146,0,27.422-12.278,27.422-27.415V112.634
		C342.387,97.497,330.11,85.219,314.965,85.219z M163.515,121.834c0-3.263,2.65-5.914,5.921-5.914h136.568
		c3.272,0,5.923,2.651,5.923,5.914v202.28c0,3.271-2.65,5.922-5.923,5.922H169.436c-3.27,0-5.921-2.651-5.921-5.922V121.834z
		 M195.805,363.473c0,2.279-1.845,4.132-4.14,4.132h-31.888c-2.293,0-4.138-1.853-4.138-4.132v-8.053
		c0-2.28,1.845-4.132,4.138-4.132h31.888c2.295,0,4.14,1.852,4.14,4.132V363.473z M251.857,367.783c0,3.271-2.65,5.922-5.921,5.922
		h-16.432c-3.271,0-5.921-2.651-5.921-5.922V351.35c0-3.27,2.65-5.921,5.921-5.921h16.432c3.271,0,5.921,2.651,5.921,5.921V367.783z
		 M319.786,363.473c0,2.279-1.845,4.132-4.139,4.132h-31.871c-2.295,0-4.14-1.853-4.14-4.132v-8.053c0-2.28,1.845-4.132,4.14-4.132
		h31.871c2.294,0,4.139,1.852,4.139,4.132V363.473z"/>
	<path style="fill:#020202;" d="M109.785,220.424H70.163V195.32c0-2.046-1.224-3.885-3.116-4.659
		c-1.874-0.783-4.044-0.357-5.487,1.092L1.477,251.83c-1.969,1.968-1.969,5.163,0,7.13l60.083,60.077
		c1.443,1.449,3.613,1.877,5.487,1.094c1.893-0.776,3.116-2.613,3.116-4.659v-25.104h39.622c2.775,0,5.038-2.256,5.038-5.046
		v-59.852C114.823,222.68,112.56,220.424,109.785,220.424z"/>
	<path style="fill:#020202;" d="M473.965,251.83l-60.085-60.077c-1.441-1.449-3.61-1.875-5.487-1.092
		c-1.891,0.774-3.114,2.613-3.114,4.659v25.104h-39.622c-2.774,0-5.038,2.255-5.038,5.046v59.852c0,2.791,2.264,5.046,5.038,5.046
		h39.622v25.104c0,2.046,1.224,3.883,3.114,4.659c1.877,0.783,4.046,0.355,5.487-1.094l60.085-60.077
		C475.934,256.993,475.934,253.799,473.965,251.83z"/>
</g>
<g>
</g>
<g>
</g>
<g>
</g>
<g>
</g>
<g>
</g>
<g>
</g>
<g>
</g>
<g>
</g>
<g>
</g>
<g>
</g>
<g>
</g>
<g>
</g>
<g>
</g>
<g>
</g>
<g>
</g>
</svg>
